# xmcd
#
# Track frame offsets: 
#        150
#        15223
#        44172
#        55685
#        83769
#        95867
#        110229
#        119754
#        134719
#        142594
#        155045
#
# Disc length: 2245 seconds
#
# Revision: 0
# Processed by: cddbd v1.5.2PL0 Copyright (c) Steve Scherf et al.
# Submitted via: ExactAudioCopy v1.0b3
#
DISCID=9d08c30b
DTITLE=Abner Jay - True Story of Abner Jay
DYEAR=2009
DGENRE=Blues
TTITLE0=I'm So Depressed
TTITLE1=Cocaine
TTITLE2=Vietnam
TTITLE3=St James Infirmary Blues
TTITLE4=Cleo
TTITLE5=Woke Up This Morning
TTITLE6=My Mule
TTITLE7=Ol Man River
TTITLE8=Don't Mess With My Baby
TTITLE9=I Am Georgia Bound
TTITLE10=The Reason Young People Use Drugs
EXTD=
EXTT0=
EXTT1=
EXTT2=
EXTT3=
EXTT4=
EXTT5=
EXTT6=
EXTT7=
EXTT8=
EXTT9=
EXTT10=
PLAYORDER=
